<svg width="54" height="80" viewBox="0 0 54 80" fill="none" xmlns="http://www.w3.org/2000/svg">
<g clip-path="url(#clip0_79_123)">
<path d="M9.55788 76.3512C8.15027 75.7474 6.74586 75.0165 5.277 74.5927C4.60847 74.4061 3.35598 74.5625 3.08425 75.0171C2.44036 76.0315 3.21222 76.778 4.25581 77.0696C6.55486 77.7115 8.86493 78.3047 11.1765 78.9133C11.6646 79.0389 12.1904 79.0657 12.6376 79.2586C14.7466 80.2201 15.5739 79.7733 15.5842 77.4923C15.6058 74.529 15.6275 71.5657 15.4293 68.6244C15.3762 67.933 14.5401 66.8604 13.9249 66.7315C12.6302 66.465 12.3033 67.6375 12.284 68.7161C12.2599 70.2229 12.2985 71.7235 12.3197 73.6849C9.52585 70.1471 7.66743 66.6114 6.35374 62.8152C1.01587 47.4334 3.1721 32.6506 10.3442 18.4127C12.4223 14.2944 15.6645 11.2001 20.4973 10.3857C21.6353 10.1931 22.8218 10.3282 24.3567 10.3018C21.6823 14.1629 19.8241 17.9426 19.2322 22.182C18.9159 24.4146 18.7799 26.7083 18.9548 28.9394C19.1703 31.5783 20.345 33.8204 23.1242 34.6675C25.9536 35.5415 28.3993 34.6325 30.3322 32.5555C33.2512 29.3985 34.4313 25.4963 34.4723 21.2961C34.5324 16.1754 32.4859 12.0249 28.088 8.93222C35.2995 1.92689 43.73 -0.00619378 53.2669 1.84574C53.2986 1.68426 53.3285 1.5071 53.3599 1.34562C52.7854 1.14952 52.2378 0.90326 51.6382 0.773008C42.5786 -1.22151 34.52 0.785334 27.5551 6.92685C26.6665 7.71215 25.9774 7.95505 24.7596 7.66475C20.2618 6.59302 16.1697 7.84024 12.7862 10.7903C10.7735 12.5428 8.82644 14.637 7.63422 16.9886C-0.0216082 32.0982 -2.40106 47.8216 3.43869 64.1033C4.95154 68.3071 7.41406 72.1788 9.52959 76.3856L9.55788 76.3512ZM26.1173 11.2664C34.3567 16.0029 32.219 27.4745 27.8372 31.2209C24.9452 33.6942 21.711 32.4176 21.2229 28.4758C20.4486 22.14 22.3892 16.4835 26.1157 11.2507L26.1173 11.2664Z" fill="#838383" fill-opacity="0.25"/>
</g>
<defs>
<clipPath id="clip0_79_123">
<rect width="53.434" height="80" fill="white"/>
</clipPath>
</defs>
</svg>
