<svg width="232" height="226" viewBox="0 0 232 226" fill="none" xmlns="http://www.w3.org/2000/svg">
<g clip-path="url(#clip0_128_163)">
<path d="M193.423 107.668C192.388 99.4217 191.674 93.1164 190.873 86.8255C190.386 82.8297 190.907 79.0782 195.889 78.8854C200.642 78.6846 202.508 81.8035 203.057 86.0557C204.377 98.0186 206.013 109.977 207.193 121.918C207.9 128.578 205.27 130.487 199.024 128.971C187.792 126.276 176.634 123.703 165.387 121.142C160.984 120.139 156.056 119.216 156.889 113.514C157.64 108.045 162.555 108.527 166.998 109.126C171.246 109.667 175.481 110.342 181.445 111.237C167.649 94.9573 153.677 81.0046 135.713 71.6474C127.972 67.6185 119.718 64.1118 111.369 62.1232C60.4632 50.0068 21.0999 92.5217 38.0607 140.921C38.9659 143.613 39.9587 146.292 40.8975 148.934L38.4022 150.071C36.7705 147.756 34.789 145.495 33.5205 142.991C19.4201 114.06 28.534 79.6532 55.3898 61.9367C80.3686 45.4824 107.415 47.2472 135.3 60.0758C155.724 69.496 171.794 84.2765 186.726 100.382C188.432 102.243 190.138 104.103 193.443 107.754L193.423 107.668Z" fill="#985184"/>
</g>
<defs>
<clipPath id="clip0_128_163">
<rect width="156.89" height="175.359" fill="white" transform="translate(0 135) rotate(-59.003)"/>
</clipPath>
</defs>
</svg>
